# xmcd
#
# Track frame offsets:
#	150
#	30572
#	69384
#
# Disc length: 1488 seconds
# Revision: 2
# Processed by: cddbd v1.5.2PL0 Copyright (c) Steve Scherf et al.
# Submitted via: dBpowerAMP V12.0
#
DISCID=1d05ce03
DTITLE=Lester Levenson - Private Lessons with Lester CD 03
DYEAR=1986
DGENRE=Home Study
TTITLE0=You Are Not the Body or the Mind
TTITLE1=Being, Doing, Having
TTITLE2=Weeks or Months
EXTD=
EXTT0=
EXTT1=
EXTT2=
PLAYORDER=
